<?xml version="1.0" encoding="utf-8"?>
<!-- Generator: Adobe Illustrator 16.0.0, SVG Export Plug-In . SVG Version: 6.00 Build 0)  -->
<!DOCTYPE svg PUBLIC "-//W3C//DTD SVG 1.1//EN" "http://www.w3.org/Graphics/SVG/1.1/DTD/svg11.dtd">
<svg version="1.1" id="Layer_1" xmlns="http://www.w3.org/2000/svg" xmlns:xlink="http://www.w3.org/1999/xlink" x="0px" y="0px"
	 width="799.85px" height="241.794px" viewBox="0 0 799.85 241.794" enable-background="new 0 0 799.85 241.794"
	 xml:space="preserve">
<path fill="#1C1C1C" d="M180.313,118.008l-0.498,2.602c-0.544,1.898-2.243,5.917-6.817,5.917H66.613l10.434-54.419h53V60.947H78.826
	c1.182-17.014-9.17-22.559-15.411-23.025l-18.89-0.016l-2.14,11.161h18.146c1.557,0.248,9.34,2.26,6.425,17.462l-12.572,65.579
	l-3.197,16.678c-1.576,8.221,1.443,13.499,5.744,16.749c-6.49,4.854-11.394,11.977-12.917,19.918
	c-2.799,14.598,6.797,26.471,21.391,26.471s28.742-11.873,31.541-26.471c1.108-5.779,0.244-11.119-2.078-15.48l36.129,0.004
	c-3.994,4.359-6.902,9.697-8.01,15.477c-2.799,14.598,6.797,26.471,21.391,26.471s28.744-11.873,31.543-26.471
	c2.79-14.555-6.758-26.408-21.297-26.459l0.033-0.172H71.934c-1.426-0.133-11.25-1.362-9.587-10.036l2.128-11.102h106.385
	c11.637,0,18.334-9.874,20-16.514c0.025-0.11,0.051-0.22,0.07-0.328l0.544-2.833H180.313z M134.148,185.452
	c1.617-8.441,9.799-15.307,18.238-15.307c8.443,0,13.992,6.867,12.375,15.307c-1.619,8.441-9.801,15.309-18.244,15.309
	C138.078,200.761,132.529,193.894,134.148,185.452z M73.414,170.146c8.441,0,13.991,6.865,12.373,15.307
	c-1.619,8.441-9.8,15.309-18.243,15.309c-8.439,0-13.987-6.867-12.369-15.309S64.975,170.146,73.414,170.146z"/>
<path fill="#2AA9AF" d="M219.561,90.577c0,10.644-8.629,19.272-19.272,19.272h-41.431c-10.643,0-19.271-8.629-19.271-19.272v-41.43
	c0-10.644,8.629-19.272,19.271-19.272h41.431c10.644,0,19.272,8.628,19.272,19.272V90.577z"/>
<g>
	<path fill="#303030" d="M292.64,93.111l-27.693,0.035l4.224-19.908l78.819-0.1l-4.224,19.908l-27.997,0.035l-18.014,84.922
		l-23.129,0.03L292.64,93.111z"/>
	<path fill="#303030" d="M393.256,159.535c-1.518,7.155-2.698,14.153-2.675,18.352l-20.847,0.026l0.248-7.619l-0.456,0
		c-6.156,6.072-14.457,9.348-23.282,9.359c-15.064,0.02-21.666-11.167-19.092-23.3c4.19-19.752,23.516-29.107,49.84-29.141
		l0.198-0.933c0.858-4.044-0.052-9.796-11.464-9.781c-7.607,0.009-16.233,2.664-21.729,5.625l-1.061-15.082
		c5.801-2.961,16.82-6.863,30.362-6.88c24.803-0.032,29.396,14.89,25.601,32.777L393.256,159.535z M374.618,141.988
		c-12.173,0.016-22.234,2.982-24.148,12.004c-1.287,6.065,2.043,9.016,7.216,9.009c5.63-0.007,11.324-3.902,13.868-8.725
		c0.568-1.245,1.018-2.646,1.314-4.045L374.618,141.988z"/>
	<path fill="#303030" d="M418.5,127.315c2.112-9.955,3.589-18.353,4.802-25.507l20.086-0.025l-1.179,10.575l0.305,0
		c7.16-7.939,16.605-12.305,27.408-12.319c16.281-0.021,27.82,14.426,22.673,38.689c-5.872,27.686-25.838,40.772-42.423,40.793
		c-8.978,0.011-15.185-3.712-17.477-8.686l-0.305,0l-8.018,37.795l-23.128,0.029L418.5,127.315z M437.833,145.173
		c-0.396,1.866-0.573,3.422-0.599,4.977c0.169,6.375,4.471,11.19,11.167,11.182c10.042-0.013,17.792-8.576,20.53-21.485
		c2.573-12.131-0.805-21.301-11.153-21.288c-6.543,0.008-13.38,4.993-16.386,11.994c-0.568,1.245-1.051,2.8-1.348,4.2
		L437.833,145.173z"/>
	<path fill="#303030" d="M505.439,153.484c5.393,3.258,14.438,6.512,24.329,6.5c10.651-0.014,17.238-4.531,18.723-11.53
		c1.353-6.377-2.691-10.259-14.093-14.599c-15.723-6.199-24.937-15.829-21.67-31.227c3.794-17.887,21.425-31.437,45.466-31.467
		c11.717-0.015,19.59,2.307,25.05,5.255l-9.199,18.981c-3.527-2.017-10.356-4.962-20.246-4.95
		c-10.043,0.013-15.935,4.84-17.057,10.128c-1.419,6.688,3.584,9.636,15.854,14.907c16.654,6.821,22.978,16.453,19.811,31.385
		c-3.729,17.576-19.981,32.523-48.131,32.559c-11.717,0.015-22.589-3.236-27.677-6.495L505.439,153.484z"/>
	<path fill="#303030" d="M606.43,146.98c-1.351,9.953,7.093,14.607,17.896,14.593c7.912-0.01,14.534-1.107,21.234-3.292
		l-0.354,16.016c-8.302,3.275-17.914,4.843-27.955,4.855c-25.26,0.032-36.547-14.881-31.466-38.833
		c4.091-19.286,20.479-40.61,46.195-40.643c24.041-0.03,29.112,19.089,25.12,37.909c-0.857,4.044-2.073,7.622-2.773,9.488
		L606.43,146.98z M637.098,130.77c1.188-5.6,0.832-15.396-9.667-15.382c-9.891,0.013-15.794,9.194-17.722,15.417L637.098,130.77z"/>
	<path fill="#303030" d="M685.896,67.111l23.128-0.029l-23.426,110.43l-23.128,0.029L685.896,67.111z"/>
	<path fill="#303030" d="M727.586,67.058l23.128-0.03l-23.426,110.43l-23.128,0.03L727.586,67.058z"/>
</g>
</svg>
